<svg id="visual" viewBox="0 0 900 200" width="900" height="200" xmlns="http://www.w3.org/2000/svg" xmlns:xlink="http://www.w3.org/1999/xlink" version="1.1"><rect x="0" y="0" width="900" height="200" fill="#9ACD32"></rect><path d="M0 88L25 84.2C50 80.3 100 72.7 150 72.3C200 72 250 79 300 91.3C350 103.7 400 121.3 450 130C500 138.7 550 138.3 600 137.3C650 136.3 700 134.7 750 121C800 107.3 850 81.7 875 68.8L900 56L900 0L875 0C850 0 800 0 750 0C700 0 650 0 600 0C550 0 500 0 450 0C400 0 350 0 300 0C250 0 200 0 150 0C100 0 50 0 25 0L0 0Z" fill="#009473"></path><path d="M0 96L25 95.5C50 95 100 94 150 86.7C200 79.3 250 65.7 300 68.7C350 71.7 400 91.3 450 97.5C500 103.7 550 96.3 600 87C650 77.7 700 66.3 750 61C800 55.7 850 56.3 875 56.7L900 57L900 0L875 0C850 0 800 0 750 0C700 0 650 0 600 0C550 0 500 0 450 0C400 0 350 0 300 0C250 0 200 0 150 0C100 0 50 0 25 0L0 0Z" fill="#00905f"></path><path d="M0 53L25 49C50 45 100 37 150 38.2C200 39.3 250 49.7 300 57.7C350 65.7 400 71.3 450 68.8C500 66.3 550 55.7 600 49.7C650 43.7 700 42.3 750 48.3C800 54.3 850 67.7 875 74.3L900 81L900 0L875 0C850 0 800 0 750 0C700 0 650 0 600 0C550 0 500 0 450 0C400 0 350 0 300 0C250 0 200 0 150 0C100 0 50 0 25 0L0 0Z" fill="#008b48"></path><path d="M0 29L25 27.2C50 25.3 100 21.7 150 22.5C200 23.3 250 28.7 300 34.8C350 41 400 48 450 50.8C500 53.7 550 52.3 600 53C650 53.7 700 56.3 750 57.2C800 58 850 57 875 56.5L900 56L900 0L875 0C850 0 800 0 750 0C700 0 650 0 600 0C550 0 500 0 450 0C400 0 350 0 300 0C250 0 200 0 150 0C100 0 50 0 25 0L0 0Z" fill="#00862d"></path><path d="M0 21L25 21.2C50 21.3 100 21.7 150 20.3C200 19 250 16 300 15.2C350 14.3 400 15.7 450 18.2C500 20.7 550 24.3 600 26.7C650 29 700 30 750 27.5C800 25 850 19 875 16L900 13L900 0L875 0C850 0 800 0 750 0C700 0 650 0 600 0C550 0 500 0 450 0C400 0 350 0 300 0C250 0 200 0 150 0C100 0 50 0 25 0L0 0Z" fill="#008000"></path></svg>