<svg id="visual" viewBox="0 0 900 200" width="900" height="200" xmlns="http://www.w3.org/2000/svg" xmlns:xlink="http://www.w3.org/1999/xlink" version="1.1"><path d="M0 25L18.8 27C37.7 29 75.3 33 112.8 31.7C150.3 30.3 187.7 23.7 225.2 20.7C262.7 17.7 300.3 18.3 337.8 22.7C375.3 27 412.7 35 450.2 36.3C487.7 37.7 525.3 32.3 562.8 31.7C600.3 31 637.7 35 675.2 35.7C712.7 36.3 750.3 33.7 787.8 31.7C825.3 29.7 862.7 28.3 881.3 27.7L900 27L900 0L881.3 0C862.7 0 825.3 0 787.8 0C750.3 0 712.7 0 675.2 0C637.7 0 600.3 0 562.8 0C525.3 0 487.7 0 450.2 0C412.7 0 375.3 0 337.8 0C300.3 0 262.7 0 225.2 0C187.7 0 150.3 0 112.8 0C75.3 0 37.7 0 18.8 0L0 0Z" fill="#9acd32"></path><path d="M0 109L18.8 111.7C37.7 114.3 75.3 119.7 112.8 117C150.3 114.3 187.7 103.7 225.2 96.7C262.7 89.7 300.3 86.3 337.8 91.7C375.3 97 412.7 111 450.2 117.3C487.7 123.7 525.3 122.3 562.8 117.7C600.3 113 637.7 105 675.2 101.7C712.7 98.3 750.3 99.7 787.8 102.7C825.3 105.7 862.7 110.3 881.3 112.7L900 115L900 25L881.3 25.7C862.7 26.3 825.3 27.7 787.8 29.7C750.3 31.7 712.7 34.3 675.2 33.7C637.7 33 600.3 29 562.8 29.7C525.3 30.3 487.7 35.7 450.2 34.3C412.7 33 375.3 25 337.8 20.7C300.3 16.3 262.7 15.7 225.2 18.7C187.7 21.7 150.3 28.3 112.8 29.7C75.3 31 37.7 27 18.8 25L0 23Z" fill="#dfa52d"></path><path d="M0 155L18.8 155.7C37.7 156.3 75.3 157.7 112.8 151C150.3 144.3 187.7 129.7 225.2 124.3C262.7 119 300.3 123 337.8 131.7C375.3 140.3 412.7 153.7 450.2 160.3C487.7 167 525.3 167 562.8 162C600.3 157 637.7 147 675.2 141C712.7 135 750.3 133 787.8 136.3C825.3 139.7 862.7 148.3 881.3 152.7L900 157L900 113L881.3 110.7C862.7 108.3 825.3 103.7 787.8 100.7C750.3 97.7 712.7 96.3 675.2 99.7C637.7 103 600.3 111 562.8 115.7C525.3 120.3 487.7 121.7 450.2 115.3C412.7 109 375.3 95 337.8 89.7C300.3 84.3 262.7 87.7 225.2 94.7C187.7 101.7 150.3 112.3 112.8 115C75.3 117.7 37.7 112.3 18.8 109.7L0 107Z" fill="#f57f61"></path><path d="M0 201L18.8 201C37.7 201 75.3 201 112.8 201C150.3 201 187.7 201 225.2 201C262.7 201 300.3 201 337.8 201C375.3 201 412.7 201 450.2 201C487.7 201 525.3 201 562.8 201C600.3 201 637.7 201 675.2 201C712.7 201 750.3 201 787.8 201C825.3 201 862.7 201 881.3 201L900 201L900 155L881.3 150.7C862.7 146.3 825.3 137.7 787.8 134.3C750.3 131 712.7 133 675.2 139C637.7 145 600.3 155 562.8 160C525.3 165 487.7 165 450.2 158.3C412.7 151.7 375.3 138.3 337.8 129.7C300.3 121 262.7 117 225.2 122.3C187.7 127.7 150.3 142.3 112.8 149C75.3 155.7 37.7 154.3 18.8 153.7L0 153Z" fill="#db7093"></path></svg>